<svg width="150" height="40" viewBox="0 0 150 40" fill="none" xmlns="http://www.w3.org/2000/svg">
<path d="M18.1762 6.36135C20.0654 6.48328 21.9011 7.0014 23.5665 7.87479C22.1823 7.53317 20.7449 7.43391 19.3185 7.58595C17.3196 7.79901 15.4034 8.4991 13.7379 9.62486C12.0724 10.7506 10.7084 12.2677 9.76555 14.0431C8.82265 15.8185 8.3296 17.7981 8.3296 19.8084C8.3296 21.8186 8.82265 23.7982 9.76555 25.5737C10.7084 27.3491 12.0724 28.8661 13.7379 29.9919C15.4034 31.1177 17.3196 31.8177 19.3185 32.0308C20.7449 32.1828 22.1823 32.0836 23.5665 31.742C21.9011 32.6154 20.0654 33.1335 18.1762 33.2554C15.7177 33.4141 13.2628 32.8957 11.0783 31.7567C8.8938 30.6177 7.06339 28.9016 5.78604 26.795C4.5087 24.6884 3.83331 22.272 3.83331 19.8084C3.83331 17.3448 4.5087 14.9283 5.78604 12.8218C7.06339 10.7152 8.8938 8.99908 11.0783 7.86006C13.2628 6.72104 15.7177 6.20269 18.1762 6.36135ZM23.1778 24.8369C22.9481 25.1767 22.7361 25.5355 22.5353 25.8754C22.4583 26.0056 22.383 26.1331 22.3089 26.2557C22.0337 26.7113 21.7635 27.1219 21.4436 27.4723C20.831 28.1435 20.0031 28.6334 18.5088 28.6334C17.8557 28.6334 17.2707 28.2744 16.7377 27.6014C16.2028 26.9262 15.7679 25.9899 15.4284 24.983C15.0909 23.9821 14.8579 22.9428 14.7127 22.0854C14.5651 21.2141 14.515 20.5723 14.5249 20.3563C14.5257 20.3395 14.5656 20.2004 14.8961 19.9719C15.1922 19.7672 15.6079 19.5703 16.0605 19.4004C16.5087 19.2322 16.969 19.0992 17.3391 19.0151C17.5244 18.9729 17.6807 18.9445 17.7973 18.9295C17.8081 18.9281 17.8183 18.9269 17.828 18.9257C17.8694 18.9908 17.9199 19.0815 17.9793 19.1991C18.0997 19.4375 18.2316 19.7349 18.3741 20.0565C18.4075 20.1318 18.4415 20.2084 18.476 20.2859C18.6524 20.6815 18.8441 21.1005 19.0311 21.4221C19.1236 21.5812 19.2285 21.7404 19.3444 21.8657C19.4386 21.9674 19.644 22.1628 19.9413 22.1583C20.1057 22.1558 20.2383 22.0884 20.3146 22.0428C20.4007 21.9913 20.482 21.9263 20.5555 21.8605C20.703 21.7283 20.866 21.55 21.0352 21.3487C21.3759 20.9432 21.7867 20.39 22.2201 19.7865C22.5126 19.3792 22.8159 18.9486 23.1189 18.5184C23.7255 17.657 24.3308 16.7976 24.8461 16.1308C25.5922 15.1652 27.0367 13.7779 28.4602 12.571C29.168 11.971 29.8605 11.4241 30.4453 11.0048C31.0288 10.5864 31.4564 10.3313 31.6791 10.2486C32.8499 9.99629 34.0628 10.035 35.2119 10.3587C35.0725 10.581 34.8456 10.8851 34.5328 11.2695C33.8424 12.1178 32.8078 13.2679 31.5965 14.6146C31.5228 14.6966 31.4484 14.7792 31.3734 14.8626C28.7732 17.7539 25.4548 21.4654 23.1778 24.8369Z" fill="#333333" stroke="#333333" stroke-linecap="round" stroke-linejoin="round"/>
<path d="M49.5781 31.2637C48.1016 31.2637 46.8008 31.1172 45.6758 30.8242C44.5625 30.5195 43.707 30.1504 43.1094 29.7168C42.5234 29.2832 42.2305 28.873 42.2305 28.4863C42.2305 28.1816 42.3418 27.8066 42.5645 27.3613C42.7988 26.916 43.0742 26.5352 43.3906 26.2188C43.707 25.8906 43.9707 25.7266 44.1816 25.7266C44.3105 25.7266 44.5859 25.8379 45.0078 26.0605C45.6406 26.3887 46.2383 26.6523 46.8008 26.8516C47.375 27.0508 48.0312 27.1504 48.7695 27.1504C49.5898 27.1504 50.2812 26.9922 50.8438 26.6758C51.418 26.3477 51.7051 25.7793 51.7051 24.9707C51.7051 24.502 51.5586 24.0977 51.2656 23.7578C50.9727 23.418 50.5977 23.1309 50.1406 22.8965C49.6836 22.6621 49.0625 22.3867 48.2773 22.0703L46.8887 21.4727C46.0449 21.0625 45.3184 20.6113 44.709 20.1191C44.1113 19.627 43.6191 18.9766 43.2324 18.168C42.8574 17.3594 42.6699 16.3691 42.6699 15.1973C42.6699 13.7676 43.0215 12.5781 43.7246 11.6289C44.4277 10.6797 45.3418 9.98242 46.4668 9.53711C47.5918 9.0918 48.7988 8.86914 50.0879 8.86914C51.1426 8.86914 52.0977 8.98047 52.9531 9.20312C53.8086 9.41406 54.4766 9.68945 54.957 10.0293C55.4492 10.3691 55.6953 10.709 55.6953 11.0488C55.6953 11.3301 55.6016 11.6934 55.4141 12.1387C55.2383 12.5723 55.0156 12.9531 54.7461 13.2812C54.4766 13.6094 54.2246 13.7734 53.9902 13.7734C53.8848 13.7734 53.6973 13.7148 53.4277 13.5977C52.9941 13.4219 52.5547 13.2812 52.1094 13.1758C51.6758 13.0586 51.1426 13 50.5098 13C49.4199 13 48.6641 13.1758 48.2422 13.5273C47.8203 13.8672 47.6094 14.2715 47.6094 14.7402C47.6094 15.2793 47.75 15.7305 48.0312 16.0938C48.3242 16.457 48.6875 16.7559 49.1211 16.9902C49.5664 17.2246 50.1816 17.4941 50.9668 17.7988C52.1504 18.3027 53.1172 18.7832 53.8672 19.2402C54.6172 19.6855 55.2617 20.3301 55.8008 21.1738C56.3516 22.0176 56.627 23.0957 56.627 24.4082C56.627 26.0137 56.2871 27.332 55.6074 28.3633C54.9395 29.3828 54.0723 30.1211 53.0059 30.5781C51.9512 31.0352 50.8086 31.2637 49.5781 31.2637ZM57.5059 35.4648C57.166 35.4648 56.9258 35.3418 56.7852 35.0957C56.6328 34.8496 56.5566 34.4512 56.5566 33.9004V33.6895C56.5566 33.1387 56.6328 32.7402 56.7852 32.4941C56.9375 32.248 57.1777 32.125 57.5059 32.125H73.5898C73.918 32.125 74.1523 32.248 74.293 32.4941C74.4453 32.7402 74.5215 33.1387 74.5215 33.6895V33.9004C74.5215 34.4512 74.4453 34.8496 74.293 35.0957C74.1523 35.3418 73.918 35.4648 73.5898 35.4648H57.5059ZM77.9316 31.0527C76.6777 31.0527 76.0508 30.7246 76.0508 30.0684V10.3633C76.0508 9.92969 76.1504 9.61914 76.3496 9.43164C76.5488 9.23242 76.8652 9.13281 77.2988 9.13281H83.873C85.8184 9.13281 87.541 9.60742 89.041 10.5566C90.541 11.5059 91.291 13.3105 91.291 15.9707C91.291 17.7988 90.8574 19.2227 89.9902 20.2422C89.123 21.25 88.1445 21.9297 87.0547 22.2812C85.9766 22.6328 85.0156 22.8086 84.1719 22.8086H80.8672V30.0684C80.8672 30.7246 80.2402 31.0527 78.9863 31.0527H77.9316ZM83.6445 18.6777C84.3945 18.6777 85.0332 18.4785 85.5605 18.0801C86.0996 17.6816 86.3691 16.9785 86.3691 15.9707C86.3691 14.9512 86.0996 14.2363 85.5605 13.8262C85.0215 13.416 84.3828 13.2109 83.6445 13.2109H80.8672V18.6777H83.6445ZM95.123 31C94.6895 31 94.373 30.9004 94.1738 30.7012C93.9746 30.502 93.875 30.1855 93.875 29.752V10.0645C93.875 9.72461 94.0273 9.47266 94.332 9.30859C94.6367 9.13281 95.1113 9.04492 95.7559 9.04492H96.8105C97.4551 9.04492 97.9297 9.13281 98.2344 9.30859C98.5391 9.47266 98.6914 9.72461 98.6914 10.0645V26.9043H105.652C105.98 26.9043 106.215 27.0273 106.355 27.2734C106.508 27.5195 106.584 27.9121 106.584 28.4512V29.4355C106.584 29.9863 106.508 30.3848 106.355 30.6309C106.215 30.877 105.98 31 105.652 31H95.123ZM108.746 31.0527C107.469 31.0527 106.83 30.8242 106.83 30.3672C106.83 30.2383 106.871 30.0508 106.953 29.8047L113.844 9.71289C114.008 9.26758 114.6 9.04492 115.619 9.04492H117.236C118.256 9.04492 118.848 9.26758 119.012 9.71289L125.902 29.8047C125.961 30.0391 125.99 30.2266 125.99 30.3672C125.99 30.6016 125.861 30.7773 125.604 30.8945C125.357 31 124.965 31.0527 124.426 31.0527H123.055C122.562 31.0527 122.164 31.0059 121.859 30.9121C121.566 30.8066 121.385 30.6367 121.314 30.4023L120.049 26.5879H112.684L111.418 30.4023C111.289 30.8359 110.809 31.0527 109.977 31.0527H108.746ZM118.713 22.457L116.938 16.9023C116.832 16.6211 116.738 16.2988 116.656 15.9355C116.586 15.5723 116.521 15.2266 116.463 14.8984H116.34L116.27 15.2852C116.152 15.9766 116.018 16.5156 115.865 16.9023L114.02 22.457H118.713ZM130.033 31.0527C128.779 31.0527 128.152 30.7246 128.152 30.0684V10.0645C128.152 9.72461 128.305 9.47266 128.609 9.30859C128.914 9.13281 129.389 9.04492 130.033 9.04492H131.369C131.873 9.04492 132.289 9.10352 132.617 9.2207C132.945 9.33789 133.215 9.56641 133.426 9.90625L140.809 21.2793L141.652 22.5449V10.0645C141.652 9.72461 141.805 9.47266 142.109 9.30859C142.414 9.13281 142.889 9.04492 143.533 9.04492H144.43C145.074 9.04492 145.543 9.13281 145.836 9.30859C146.141 9.47266 146.293 9.72461 146.293 10.0645V30.0684C146.293 30.7246 145.672 31.0527 144.43 31.0527H143.234C142.719 31.0527 142.303 31 141.986 30.8945C141.67 30.7773 141.406 30.5547 141.195 30.2266L133.461 18.3965L132.793 17.4121V30.0684C132.793 30.7246 132.172 31.0527 130.93 31.0527H130.033Z" fill="#333333"/>
</svg>
