<svg width="150" height="40" viewBox="0 0 150 40" fill="none" xmlns="http://www.w3.org/2000/svg">
<path d="M18.1764 6.36148C20.0655 6.4834 21.9013 7.00152 23.5667 7.87491C22.1825 7.53329 20.7451 7.43403 19.3187 7.58607C17.3197 7.79913 15.4036 8.49922 13.7381 9.62498C12.0726 10.7507 10.7086 12.2678 9.76573 14.0432C8.82283 15.8186 8.32978 17.7982 8.32978 19.8085C8.32978 21.8188 8.82283 23.7984 9.76573 25.5738C10.7086 27.3492 12.0726 28.8663 13.7381 29.992C15.4036 31.1178 17.3197 31.8179 19.3187 32.0309C20.7451 32.183 22.1825 32.0837 23.5667 31.7421C21.9013 32.6155 20.0655 33.1336 18.1764 33.2555C15.7179 33.4142 13.2629 32.8958 11.0785 31.7568C8.89399 30.6178 7.06357 28.9017 5.78623 26.7951C4.50888 24.6885 3.8335 22.2721 3.8335 19.8085C3.8335 17.3449 4.50888 14.9285 5.78623 12.8219C7.06357 10.7153 8.89399 8.9992 11.0785 7.86018C13.2629 6.72116 15.7179 6.20281 18.1764 6.36148ZM23.1779 24.837C22.9483 25.1768 22.7363 25.5356 22.5355 25.8755C22.4585 26.0057 22.3832 26.1332 22.3091 26.2558C22.0339 26.7114 21.7637 27.122 21.4438 27.4725C20.8312 28.1436 20.0033 28.6335 18.5089 28.6335C17.8559 28.6335 17.2709 28.2745 16.7379 27.6016C16.203 26.9263 15.7681 25.99 15.4286 24.9831C15.0911 23.9822 14.8581 22.9429 14.7129 22.0855C14.5652 21.2142 14.5152 20.5724 14.5251 20.3564C14.5259 20.3396 14.5658 20.2005 14.8963 19.972C15.1924 19.7673 15.6081 19.5705 16.0607 19.4006C16.5088 19.2323 16.9691 19.0994 17.3392 19.0152C17.5246 18.973 17.6809 18.9446 17.7975 18.9296C17.8083 18.9282 17.8185 18.927 17.8282 18.9259C17.8695 18.9909 17.92 19.0816 17.9795 19.1992C18.0999 19.4376 18.2318 19.735 18.3743 20.0566C18.4077 20.1319 18.4417 20.2085 18.4762 20.286C18.6526 20.6816 18.8443 21.1006 19.0313 21.4222C19.1238 21.5813 19.2287 21.7406 19.3446 21.8658C19.4388 21.9675 19.6442 22.1629 19.9415 22.1584C20.1059 22.156 20.2385 22.0886 20.3148 22.0429C20.4008 21.9914 20.4822 21.9264 20.5556 21.8606C20.7032 21.7284 20.8661 21.5502 21.0354 21.3488C21.376 20.9433 21.7868 20.3901 22.2203 19.7866C22.5128 19.3793 22.8161 18.9487 23.1191 18.5185C23.7257 17.6572 24.331 16.7977 24.8463 16.1309C25.5924 15.1653 27.0368 13.778 28.4604 12.5711C29.1682 11.9711 29.8607 11.4242 30.4455 11.005C31.029 10.5866 31.4566 10.3314 31.6792 10.2487C32.8501 9.99642 34.0629 10.0351 35.2121 10.3588C35.0727 10.5811 34.8458 10.8853 34.533 11.2696C33.8426 12.118 32.808 13.2681 31.5967 14.6147C31.523 14.6967 31.4486 14.7793 31.3736 14.8627C28.7734 17.754 25.455 21.4655 23.1779 24.837Z" fill="#FDFCFC" stroke="#333333" stroke-linecap="round" stroke-linejoin="round"/>
<path d="M49.5781 31.2637C48.1016 31.2637 46.8008 31.1172 45.6758 30.8242C44.5625 30.5195 43.707 30.1504 43.1094 29.7168C42.5234 29.2832 42.2305 28.873 42.2305 28.4863C42.2305 28.1816 42.3418 27.8066 42.5645 27.3613C42.7988 26.916 43.0742 26.5352 43.3906 26.2188C43.707 25.8906 43.9707 25.7266 44.1816 25.7266C44.3105 25.7266 44.5859 25.8379 45.0078 26.0605C45.6406 26.3887 46.2383 26.6523 46.8008 26.8516C47.375 27.0508 48.0312 27.1504 48.7695 27.1504C49.5898 27.1504 50.2812 26.9922 50.8438 26.6758C51.418 26.3477 51.7051 25.7793 51.7051 24.9707C51.7051 24.502 51.5586 24.0977 51.2656 23.7578C50.9727 23.418 50.5977 23.1309 50.1406 22.8965C49.6836 22.6621 49.0625 22.3867 48.2773 22.0703L46.8887 21.4727C46.0449 21.0625 45.3184 20.6113 44.709 20.1191C44.1113 19.627 43.6191 18.9766 43.2324 18.168C42.8574 17.3594 42.6699 16.3691 42.6699 15.1973C42.6699 13.7676 43.0215 12.5781 43.7246 11.6289C44.4277 10.6797 45.3418 9.98242 46.4668 9.53711C47.5918 9.0918 48.7988 8.86914 50.0879 8.86914C51.1426 8.86914 52.0977 8.98047 52.9531 9.20312C53.8086 9.41406 54.4766 9.68945 54.957 10.0293C55.4492 10.3691 55.6953 10.709 55.6953 11.0488C55.6953 11.3301 55.6016 11.6934 55.4141 12.1387C55.2383 12.5723 55.0156 12.9531 54.7461 13.2812C54.4766 13.6094 54.2246 13.7734 53.9902 13.7734C53.8848 13.7734 53.6973 13.7148 53.4277 13.5977C52.9941 13.4219 52.5547 13.2812 52.1094 13.1758C51.6758 13.0586 51.1426 13 50.5098 13C49.4199 13 48.6641 13.1758 48.2422 13.5273C47.8203 13.8672 47.6094 14.2715 47.6094 14.7402C47.6094 15.2793 47.75 15.7305 48.0312 16.0938C48.3242 16.457 48.6875 16.7559 49.1211 16.9902C49.5664 17.2246 50.1816 17.4941 50.9668 17.7988C52.1504 18.3027 53.1172 18.7832 53.8672 19.2402C54.6172 19.6855 55.2617 20.3301 55.8008 21.1738C56.3516 22.0176 56.627 23.0957 56.627 24.4082C56.627 26.0137 56.2871 27.332 55.6074 28.3633C54.9395 29.3828 54.0723 30.1211 53.0059 30.5781C51.9512 31.0352 50.8086 31.2637 49.5781 31.2637ZM57.5059 35.4648C57.166 35.4648 56.9258 35.3418 56.7852 35.0957C56.6328 34.8496 56.5566 34.4512 56.5566 33.9004V33.6895C56.5566 33.1387 56.6328 32.7402 56.7852 32.4941C56.9375 32.248 57.1777 32.125 57.5059 32.125H73.5898C73.918 32.125 74.1523 32.248 74.293 32.4941C74.4453 32.7402 74.5215 33.1387 74.5215 33.6895V33.9004C74.5215 34.4512 74.4453 34.8496 74.293 35.0957C74.1523 35.3418 73.918 35.4648 73.5898 35.4648H57.5059ZM77.9316 31.0527C76.6777 31.0527 76.0508 30.7246 76.0508 30.0684V10.3633C76.0508 9.92969 76.1504 9.61914 76.3496 9.43164C76.5488 9.23242 76.8652 9.13281 77.2988 9.13281H83.873C85.8184 9.13281 87.541 9.60742 89.041 10.5566C90.541 11.5059 91.291 13.3105 91.291 15.9707C91.291 17.7988 90.8574 19.2227 89.9902 20.2422C89.123 21.25 88.1445 21.9297 87.0547 22.2812C85.9766 22.6328 85.0156 22.8086 84.1719 22.8086H80.8672V30.0684C80.8672 30.7246 80.2402 31.0527 78.9863 31.0527H77.9316ZM83.6445 18.6777C84.3945 18.6777 85.0332 18.4785 85.5605 18.0801C86.0996 17.6816 86.3691 16.9785 86.3691 15.9707C86.3691 14.9512 86.0996 14.2363 85.5605 13.8262C85.0215 13.416 84.3828 13.2109 83.6445 13.2109H80.8672V18.6777H83.6445ZM95.123 31C94.6895 31 94.373 30.9004 94.1738 30.7012C93.9746 30.502 93.875 30.1855 93.875 29.752V10.0645C93.875 9.72461 94.0273 9.47266 94.332 9.30859C94.6367 9.13281 95.1113 9.04492 95.7559 9.04492H96.8105C97.4551 9.04492 97.9297 9.13281 98.2344 9.30859C98.5391 9.47266 98.6914 9.72461 98.6914 10.0645V26.9043H105.652C105.98 26.9043 106.215 27.0273 106.355 27.2734C106.508 27.5195 106.584 27.9121 106.584 28.4512V29.4355C106.584 29.9863 106.508 30.3848 106.355 30.6309C106.215 30.877 105.98 31 105.652 31H95.123ZM108.746 31.0527C107.469 31.0527 106.83 30.8242 106.83 30.3672C106.83 30.2383 106.871 30.0508 106.953 29.8047L113.844 9.71289C114.008 9.26758 114.6 9.04492 115.619 9.04492H117.236C118.256 9.04492 118.848 9.26758 119.012 9.71289L125.902 29.8047C125.961 30.0391 125.99 30.2266 125.99 30.3672C125.99 30.6016 125.861 30.7773 125.604 30.8945C125.357 31 124.965 31.0527 124.426 31.0527H123.055C122.562 31.0527 122.164 31.0059 121.859 30.9121C121.566 30.8066 121.385 30.6367 121.314 30.4023L120.049 26.5879H112.684L111.418 30.4023C111.289 30.8359 110.809 31.0527 109.977 31.0527H108.746ZM118.713 22.457L116.938 16.9023C116.832 16.6211 116.738 16.2988 116.656 15.9355C116.586 15.5723 116.521 15.2266 116.463 14.8984H116.34L116.27 15.2852C116.152 15.9766 116.018 16.5156 115.865 16.9023L114.02 22.457H118.713ZM130.033 31.0527C128.779 31.0527 128.152 30.7246 128.152 30.0684V10.0645C128.152 9.72461 128.305 9.47266 128.609 9.30859C128.914 9.13281 129.389 9.04492 130.033 9.04492H131.369C131.873 9.04492 132.289 9.10352 132.617 9.2207C132.945 9.33789 133.215 9.56641 133.426 9.90625L140.809 21.2793L141.652 22.5449V10.0645C141.652 9.72461 141.805 9.47266 142.109 9.30859C142.414 9.13281 142.889 9.04492 143.533 9.04492H144.43C145.074 9.04492 145.543 9.13281 145.836 9.30859C146.141 9.47266 146.293 9.72461 146.293 10.0645V30.0684C146.293 30.7246 145.672 31.0527 144.43 31.0527H143.234C142.719 31.0527 142.303 31 141.986 30.8945C141.67 30.7773 141.406 30.5547 141.195 30.2266L133.461 18.3965L132.793 17.4121V30.0684C132.793 30.7246 132.172 31.0527 130.93 31.0527H130.033Z" fill="#FDFCFC"/>
<path d="M45.6758 30.8242L45.4118 31.7888L45.4238 31.7919L45.6758 30.8242ZM43.1094 29.7168L42.5145 30.5207L42.5221 30.5262L43.1094 29.7168ZM42.5645 27.3613L41.6795 26.8956L41.6747 26.9048L41.67 26.9141L42.5645 27.3613ZM43.3906 26.2188L44.0977 26.9259L44.1042 26.9194L44.1105 26.9129L43.3906 26.2188ZM45.0078 26.0605L44.541 26.945L44.5475 26.9483L45.0078 26.0605ZM46.8008 26.8516L46.4669 27.7942L46.473 27.7963L46.8008 26.8516ZM50.8438 26.6758L51.334 27.5474L51.3399 27.544L50.8438 26.6758ZM48.2773 22.0703L47.882 22.9889L47.8927 22.9935L47.9036 22.9978L48.2773 22.0703ZM46.8887 21.4727L46.4515 22.372L46.4722 22.3821L46.4933 22.3912L46.8887 21.4727ZM44.709 20.1191L44.0732 20.8911L44.0806 20.8971L44.709 20.1191ZM43.2324 18.168L42.3252 18.5887L42.3303 18.5994L43.2324 18.168ZM52.9531 9.20312L52.7012 10.171L52.7137 10.174L52.9531 9.20312ZM54.957 10.0293L54.3795 10.8458L54.3888 10.8522L54.957 10.0293ZM55.4141 12.1387L54.4923 11.7506L54.4873 11.763L55.4141 12.1387ZM53.4277 13.5977L53.8265 12.6806L53.815 12.6756L53.8034 12.6709L53.4277 13.5977ZM52.1094 13.1758L51.8485 14.1411L51.8636 14.1452L51.8789 14.1489L52.1094 13.1758ZM48.2422 13.5273L48.8695 14.3061L48.876 14.3009L48.8824 14.2956L48.2422 13.5273ZM48.0312 16.0938L47.2405 16.7059L47.2466 16.7138L47.2528 16.7215L48.0312 16.0938ZM49.1211 16.9902L48.6455 17.87L48.6553 17.8752L49.1211 16.9902ZM50.9668 17.7988L51.3585 16.8787L51.3436 16.8724L51.3286 16.8666L50.9668 17.7988ZM53.8672 19.2402L53.3468 20.0942L53.3566 20.1001L53.8672 19.2402ZM55.8008 21.1738L54.958 21.7122L54.9634 21.7205L55.8008 21.1738ZM55.6074 28.3633L54.7725 27.813L54.771 27.8153L55.6074 28.3633ZM53.0059 30.5781L52.6119 29.659L52.6083 29.6606L53.0059 30.5781ZM49.5781 30.2637C48.1649 30.2637 46.9519 30.1232 45.9278 29.8565L45.4238 31.7919C46.6497 32.1112 48.0382 32.2637 49.5781 32.2637V30.2637ZM45.9398 29.8597C44.8847 29.5709 44.1577 29.2419 43.6966 28.9074L42.5221 30.5262C43.2564 31.0589 44.2403 31.4681 45.4118 31.7887L45.9398 29.8597ZM43.7042 28.913C43.4613 28.7332 43.329 28.5939 43.2639 28.5027C43.202 28.4161 43.2305 28.4161 43.2305 28.4863H41.2305C41.2305 29.3834 41.8851 30.0549 42.5145 30.5206L43.7042 28.913ZM43.2305 28.4863C43.2305 28.4053 43.2667 28.1929 43.4589 27.8085L41.67 26.9141C41.4169 27.4204 41.2305 27.958 41.2305 28.4863H43.2305ZM43.4494 27.8271C43.6427 27.4598 43.8606 27.163 44.0977 26.9259L42.6835 25.5116C42.2878 25.9073 41.955 26.3723 41.6795 26.8956L43.4494 27.8271ZM44.1105 26.9129C44.1708 26.8503 44.2223 26.8022 44.265 26.7659C44.3081 26.7294 44.3377 26.7088 44.354 26.6987C44.3708 26.6882 44.3658 26.6936 44.3403 26.7024C44.3139 26.7115 44.259 26.7266 44.1816 26.7266V24.7266C43.8211 24.7266 43.5175 24.8636 43.2974 25.0006C43.0713 25.1412 42.8622 25.3261 42.6708 25.5246L44.1105 26.9129ZM44.1816 26.7266C44.1285 26.7266 44.0897 26.7211 44.071 26.7179C44.0606 26.7162 44.0529 26.7146 44.0481 26.7135C44.0434 26.7124 44.0407 26.7117 44.0403 26.7116C44.0399 26.7114 44.0456 26.713 44.0584 26.7175C44.0709 26.7218 44.0879 26.7282 44.1101 26.7372C44.2035 26.7749 44.3445 26.8412 44.5411 26.9449L45.4746 25.1762C45.2493 25.0573 45.0416 24.9565 44.8597 24.8829C44.7183 24.8258 44.458 24.7266 44.1816 24.7266V26.7266ZM44.5475 26.9483C45.2136 27.2937 45.8537 27.577 46.4669 27.7942L47.1346 25.9089C46.6229 25.7277 46.0677 25.4837 45.4681 25.1728L44.5475 26.9483ZM46.473 27.7963C47.1725 28.039 47.9428 28.1504 48.7695 28.1504V26.1504C48.1197 26.1504 47.5775 26.0626 47.1286 25.9068L46.473 27.7963ZM48.7695 28.1504C49.7159 28.1504 50.5865 27.9678 51.334 27.5474L50.3535 25.8042C49.976 26.0166 49.4637 26.1504 48.7695 26.1504V28.1504ZM51.3399 27.544C52.2995 26.9957 52.7051 26.0442 52.7051 24.9707H50.7051C50.7051 25.5144 50.5365 25.6996 50.3476 25.8075L51.3399 27.544ZM52.7051 24.9707C52.7051 24.2739 52.48 23.6349 52.023 23.1049L50.5082 24.4108C50.6372 24.5604 50.7051 24.73 50.7051 24.9707H52.7051ZM52.023 23.1049C51.6346 22.6543 51.1522 22.2914 50.5969 22.0067L49.6843 23.7863C50.0431 23.9703 50.3107 24.1816 50.5082 24.4108L52.023 23.1049ZM50.5969 22.0067C50.1014 21.7525 49.4489 21.4643 48.6511 21.1428L47.9036 22.9978C48.6761 23.3091 49.2658 23.5717 49.6843 23.7863L50.5969 22.0067ZM48.6727 21.1518L47.284 20.5541L46.4933 22.3912L47.882 22.9889L48.6727 21.1518ZM47.3259 20.5733C46.5373 20.19 45.8776 19.7776 45.3373 19.3412L44.0806 20.8971C44.7592 21.4451 45.5525 21.935 46.4515 22.372L47.3259 20.5733ZM45.3447 19.3472C44.876 18.9613 44.4682 18.4342 44.1346 17.7365L42.3303 18.5994C42.77 19.5189 43.3466 20.2926 44.0733 20.8911L45.3447 19.3472ZM44.1396 17.7472C43.8418 17.1051 43.6699 16.2675 43.6699 15.1973H41.6699C41.6699 16.4707 41.873 17.6137 42.3252 18.5887L44.1396 17.7472ZM43.6699 15.1973C43.6699 13.9358 43.9776 12.9674 44.5282 12.2241L42.9211 11.0337C42.0654 12.1889 41.6699 13.5994 41.6699 15.1973H43.6699ZM44.5282 12.2241C45.1174 11.4287 45.879 10.8453 46.8348 10.4669L46.0987 8.6073C44.8046 9.11955 43.7381 9.93068 42.9211 11.0337L44.5282 12.2241ZM46.8348 10.4669C47.8352 10.071 48.9165 9.86914 50.0879 9.86914V7.86914C48.6811 7.86914 47.3484 8.11264 46.0987 8.6073L46.8348 10.4669ZM50.0879 9.86914C51.0734 9.86914 51.942 9.97328 52.7012 10.1709L53.205 8.23537C52.2533 7.98766 51.2117 7.86914 50.0879 7.86914V9.86914ZM52.7137 10.174C53.5023 10.3685 54.0387 10.6046 54.3796 10.8457L55.5345 9.21288C54.9144 8.77431 54.1148 8.45962 53.1925 8.23221L52.7137 10.174ZM54.3888 10.8522C54.5779 10.9828 54.6661 11.0777 54.7008 11.1256C54.7297 11.1655 54.6953 11.1347 54.6953 11.0488H56.6953C56.6953 10.1946 56.0863 9.59383 55.5252 9.2064L54.3888 10.8522ZM54.6953 11.0488C54.6953 11.1339 54.66 11.3525 54.4924 11.7506L56.3357 12.5267C56.5431 12.0342 56.6953 11.5263 56.6953 11.0488H54.6953ZM54.4873 11.763C54.3457 12.1124 54.1726 12.404 53.9734 12.6465L55.5188 13.916C55.8586 13.5023 56.1309 13.0321 56.3408 12.5144L54.4873 11.763ZM53.9734 12.6465C53.9281 12.7017 53.8904 12.7415 53.8609 12.7693C53.8311 12.7974 53.8137 12.8095 53.8093 12.8124C53.8002 12.8183 53.8657 12.7734 53.9902 12.7734V14.7734C54.6946 14.7734 55.2041 14.2991 55.5188 13.916L53.9734 12.6465ZM53.9902 12.7734C54.0506 12.7734 54.0883 12.7811 54.0919 12.7819C54.0985 12.7832 54.0919 12.7822 54.0688 12.775C54.0214 12.7602 53.9428 12.7312 53.8265 12.6806L53.029 14.5147C53.1822 14.5813 53.3321 14.6402 53.4722 14.684C53.5945 14.7222 53.7837 14.7734 53.9902 14.7734V12.7734ZM53.8034 12.6709C53.3237 12.4764 52.8358 12.3202 52.3398 12.2027L51.8789 14.1489C52.2736 14.2423 52.6645 14.3673 53.052 14.5244L53.8034 12.6709ZM52.3703 12.2104C51.8249 12.063 51.1978 12 50.5098 12V14C51.0873 14 51.5267 14.0542 51.8485 14.1411L52.3703 12.2104ZM50.5098 12C49.3818 12 48.3115 12.1678 47.602 12.7591L48.8824 14.2956C49.0166 14.1837 49.4581 14 50.5098 14V12ZM47.6149 12.7486C46.9985 13.2451 46.6094 13.9197 46.6094 14.7402H48.6094C48.6094 14.6233 48.6421 14.4893 48.8695 14.3061L47.6149 12.7486ZM46.6094 14.7402C46.6094 15.461 46.801 16.1383 47.2405 16.7059L48.822 15.4816C48.699 15.3227 48.6094 15.0976 48.6094 14.7402H46.6094ZM47.2528 16.7215C47.6337 17.1938 48.102 17.5761 48.6456 17.8699L49.5966 16.1105C49.273 15.9356 49.0148 15.7203 48.8097 15.466L47.2528 16.7215ZM48.6553 17.8752C49.1493 18.1351 49.8045 18.4205 50.605 18.7311L51.3286 16.8666C50.5587 16.5678 49.9835 16.3141 49.5868 16.1053L48.6553 17.8752ZM50.5751 18.7189C51.7326 19.2117 52.6522 19.6709 53.3468 20.0942L54.3876 18.3863C53.5822 17.8955 52.5681 17.3937 51.3585 16.8787L50.5751 18.7189ZM53.3566 20.1001C53.9537 20.4546 54.4906 20.9806 54.9581 21.7122L56.6435 20.6354C56.0328 19.6796 55.2806 18.9165 54.3777 18.3804L53.3566 20.1001ZM54.9634 21.7205C55.3803 22.3591 55.627 23.2319 55.627 24.4082H57.627C57.627 22.9595 57.3228 21.676 56.6382 20.6272L54.9634 21.7205ZM55.627 24.4082C55.627 25.876 55.3165 26.9875 54.7725 27.813L56.4424 28.9136C57.2577 27.6765 57.627 26.1514 57.627 24.4082H55.627ZM54.771 27.8153C54.205 28.679 53.4881 29.2835 52.6119 29.659L53.3998 31.4973C54.6564 30.9587 55.6739 30.0866 56.4439 28.9113L54.771 27.8153ZM52.6083 29.6606C51.6877 30.0595 50.6816 30.2637 49.5781 30.2637V32.2637C50.9356 32.2637 52.2146 32.0109 53.4035 31.4957L52.6083 29.6606ZM56.7852 35.0957L57.6534 34.5996L57.6447 34.5843L57.6354 34.5693L56.7852 35.0957ZM74.293 32.4941L73.4247 32.9903L73.4334 33.0055L73.4427 33.0205L74.293 32.4941ZM74.293 35.0957L73.4427 34.5693L73.4334 34.5843L73.4247 34.5996L74.293 35.0957ZM57.5059 34.4648C57.4544 34.4648 57.4739 34.4555 57.5267 34.4825C57.5531 34.4961 57.5805 34.5152 57.6053 34.5391C57.6297 34.5628 57.6451 34.585 57.6534 34.5996L55.9169 35.5918C56.2739 36.2165 56.8917 36.4648 57.5059 36.4648V34.4648ZM57.6354 34.5693C57.6437 34.5828 57.6197 34.5483 57.596 34.4245C57.5731 34.3047 57.5566 34.1335 57.5566 33.9004H55.5566C55.5566 34.496 55.6303 35.1301 55.9349 35.6221L57.6354 34.5693ZM57.5566 33.9004V33.6895H55.5566V33.9004H57.5566ZM57.5566 33.6895C57.5566 33.4564 57.5731 33.2852 57.596 33.1653C57.6197 33.0415 57.6437 33.0071 57.6354 33.0205L55.9349 31.9678C55.6303 32.4598 55.5566 33.0939 55.5566 33.6895H57.5566ZM57.6354 33.0205C57.6309 33.0278 57.6201 33.0432 57.6009 33.0612C57.5814 33.0795 57.5588 33.0954 57.5355 33.1073C57.4872 33.132 57.4666 33.125 57.5059 33.125V31.125C56.8863 31.125 56.2967 31.3834 55.9349 31.9678L57.6354 33.0205ZM57.5059 33.125H73.5898V31.125H57.5059V33.125ZM73.5898 33.125C73.6301 33.125 73.6034 33.1324 73.5469 33.1027C73.5191 33.0881 73.4919 33.0685 73.4684 33.0453C73.4452 33.0225 73.4315 33.0021 73.4247 32.9903L75.1612 31.998C74.8113 31.3857 74.2091 31.125 73.5898 31.125V33.125ZM73.4427 33.0205C73.4344 33.0071 73.4585 33.0415 73.4821 33.1653C73.5051 33.2852 73.5215 33.4564 73.5215 33.6895H75.5215C75.5215 33.0939 75.4478 32.4598 75.1432 31.9678L73.4427 33.0205ZM73.5215 33.6895V33.9004H75.5215V33.6895H73.5215ZM73.5215 33.9004C73.5215 34.1335 73.5051 34.3047 73.4821 34.4245C73.4585 34.5483 73.4344 34.5828 73.4427 34.5693L75.1432 35.6221C75.4478 35.1301 75.5215 34.496 75.5215 33.9004H73.5215ZM73.4247 34.5996C73.4315 34.5877 73.4452 34.5674 73.4684 34.5445C73.4919 34.5214 73.5191 34.5018 73.5469 34.4872C73.6034 34.4575 73.6301 34.4648 73.5898 34.4648V36.4648C74.2091 36.4648 74.8113 36.2041 75.1612 35.5918L73.4247 34.5996ZM73.5898 34.4648H57.5059V36.4648H73.5898V34.4648ZM76.3496 9.43164L77.035 10.1598L77.046 10.1495L77.0567 10.1387L76.3496 9.43164ZM89.9902 20.2422L90.7483 20.8944L90.752 20.8901L89.9902 20.2422ZM87.0547 22.2812L86.7477 21.3295L86.7447 21.3305L87.0547 22.2812ZM80.8672 22.8086V21.8086H79.8672V22.8086H80.8672ZM85.5605 18.0801L84.9661 17.2759L84.9577 17.2822L85.5605 18.0801ZM80.8672 13.2109V12.2109H79.8672V13.2109H80.8672ZM80.8672 18.6777H79.8672V19.6777H80.8672V18.6777ZM77.9316 30.0527C77.3594 30.0527 77.0835 29.9724 76.9847 29.9206C76.95 29.9025 76.9781 29.909 77.0118 29.9618C77.0276 29.9867 77.0386 30.0126 77.0449 30.0357C77.051 30.0581 77.0508 30.0704 77.0508 30.0684H75.0508C75.0508 30.3983 75.1319 30.7332 75.3249 31.0362C75.5153 31.3351 75.7785 31.5467 76.0573 31.6926C76.5854 31.969 77.25 32.0527 77.9316 32.0527V30.0527ZM77.0508 30.0684V10.3633H75.0508V30.0684H77.0508ZM77.0508 10.3633C77.0508 10.2182 77.068 10.1407 77.0777 10.1106C77.0857 10.0856 77.0804 10.1171 77.035 10.1598L75.6642 8.70344C75.1729 9.16585 75.0508 9.81124 75.0508 10.3633H77.0508ZM77.0567 10.1387C77.024 10.1715 77.0047 10.1714 77.0366 10.1614C77.0731 10.1499 77.1545 10.1328 77.2988 10.1328V8.13281C76.7398 8.13281 76.1092 8.25786 75.6425 8.72453L77.0567 10.1387ZM77.2988 10.1328H83.873V8.13281H77.2988V10.1328ZM83.873 10.1328C85.6479 10.1328 87.1815 10.5633 88.5063 11.4017L89.5758 9.71162C87.9006 8.65155 85.9889 8.13281 83.873 8.13281V10.1328ZM88.5063 11.4017C89.5901 12.0875 90.291 13.4706 90.291 15.9707H92.291C92.291 13.1505 91.4919 10.9242 89.5758 9.71162L88.5063 11.4017ZM90.291 15.9707C90.291 17.6483 89.8937 18.8123 89.2285 19.5943L90.752 20.8901C91.8212 19.633 92.291 17.9493 92.291 15.9707H90.291ZM89.2322 19.5899C88.4653 20.4812 87.6359 21.043 86.7477 21.3295L87.3617 23.233C88.6531 22.8164 89.7807 22.0188 90.7482 20.8944L89.2322 19.5899ZM86.7447 21.3305C85.7345 21.6599 84.8812 21.8086 84.1719 21.8086V23.8086C85.1501 23.8086 86.2186 23.6057 87.3647 23.232L86.7447 21.3305ZM84.1719 21.8086H80.8672V23.8086H84.1719V21.8086ZM79.8672 22.8086V30.0684H81.8672V22.8086H79.8672ZM79.8672 30.0684C79.8672 30.0704 79.867 30.0581 79.8731 30.0357C79.8794 30.0126 79.8903 29.9867 79.9062 29.9618C79.9398 29.909 79.968 29.9025 79.9333 29.9206C79.8344 29.9724 79.5586 30.0527 78.9863 30.0527V32.0527C79.6679 32.0527 80.3326 31.969 80.8607 31.6926C81.1395 31.5467 81.4027 31.3351 81.5931 31.0362C81.7861 30.7332 81.8672 30.3983 81.8672 30.0684H79.8672ZM78.9863 30.0527H77.9316V32.0527H78.9863V30.0527ZM83.6445 19.6777C84.5814 19.6777 85.4394 19.4249 86.1634 18.8779L84.9577 17.2822C84.627 17.5321 84.2076 17.6777 83.6445 17.6777V19.6777ZM86.1549 18.8843C87.0581 18.2167 87.3691 17.1299 87.3691 15.9707H85.3691C85.3691 16.8271 85.1411 17.1466 84.9662 17.2759L86.1549 18.8843ZM87.3691 15.9707C87.3691 14.8017 87.0596 13.7102 86.1661 13.0303L84.955 14.622C85.1396 14.7624 85.3691 15.1006 85.3691 15.9707H87.3691ZM86.1661 13.0303C85.437 12.4756 84.5807 12.2109 83.6445 12.2109V14.2109C84.1849 14.2109 84.6059 14.3564 84.955 14.622L86.1661 13.0303ZM83.6445 12.2109H80.8672V14.2109H83.6445V12.2109ZM79.8672 13.2109V18.6777H81.8672V13.2109H79.8672ZM80.8672 19.6777H83.6445V17.6777H80.8672V19.6777ZM94.332 9.30859L94.8061 10.1891L94.819 10.1821L94.8318 10.1748L94.332 9.30859ZM98.2344 9.30859L97.7347 10.1748L97.7474 10.1821L97.7603 10.1891L98.2344 9.30859ZM98.6914 26.9043H97.6914V27.9043H98.6914V26.9043ZM106.355 27.2734L105.487 27.7696L105.496 27.7848L105.505 27.7998L106.355 27.2734ZM106.355 30.6309L105.505 30.1045L105.496 30.1195L105.487 30.1347L106.355 30.6309ZM95.123 30C94.9787 30 94.8973 29.9829 94.8608 29.9714C94.8289 29.9614 94.8482 29.9613 94.8809 29.9941L93.4667 31.4083C93.9334 31.875 94.564 32 95.123 32V30ZM94.8809 29.9941C94.9137 30.0268 94.9136 30.0461 94.9036 30.0142C94.8921 29.9777 94.875 29.8963 94.875 29.752H92.875C92.875 30.311 93 30.9416 93.4667 31.4083L94.8809 29.9941ZM94.875 29.752V10.0645H92.875V29.752H94.875ZM94.875 10.0645C94.875 10.0543 94.8761 10.0594 94.872 10.0753C94.8677 10.0922 94.8592 10.1145 94.845 10.138C94.8308 10.1615 94.8158 10.178 94.8052 10.1876C94.7953 10.1967 94.7934 10.1959 94.8061 10.1891L93.8579 8.42812C93.5761 8.5799 93.3173 8.79929 93.1335 9.10319C92.9492 9.40805 92.875 9.74075 92.875 10.0645H94.875ZM94.8318 10.1748C94.9045 10.1328 95.1626 10.0449 95.7559 10.0449V8.04492C95.0601 8.04492 94.369 8.13279 93.8323 8.44241L94.8318 10.1748ZM95.7559 10.0449H96.8105V8.04492H95.7559V10.0449ZM96.8105 10.0449C97.4038 10.0449 97.662 10.1328 97.7347 10.1748L98.7341 8.44241C98.1974 8.13279 97.5063 8.04492 96.8105 8.04492V10.0449ZM97.7603 10.1891C97.773 10.1959 97.7711 10.1967 97.7612 10.1876C97.7506 10.178 97.7356 10.1615 97.7214 10.138C97.7072 10.1145 97.6987 10.0922 97.6944 10.0753C97.6903 10.0594 97.6914 10.0543 97.6914 10.0645H99.6914C99.6914 9.74075 99.6172 9.40805 99.4329 9.10319C99.2491 8.79929 98.9903 8.5799 98.7085 8.42812L97.7603 10.1891ZM97.6914 10.0645V26.9043H99.6914V10.0645H97.6914ZM98.6914 27.9043H105.652V25.9043H98.6914V27.9043ZM105.652 27.9043C105.693 27.9043 105.666 27.9117 105.609 27.882C105.582 27.8674 105.554 27.8478 105.531 27.8246C105.508 27.8018 105.494 27.7814 105.487 27.7696L107.224 26.7773C106.874 26.165 106.272 25.9043 105.652 25.9043V27.9043ZM105.505 27.7998C105.498 27.7886 105.522 27.8234 105.545 27.9429C105.568 28.0591 105.584 28.2251 105.584 28.4512H107.584C107.584 27.8623 107.509 27.2368 107.206 26.7471L105.505 27.7998ZM105.584 28.4512V29.4355H107.584V28.4512H105.584ZM105.584 29.4355C105.584 29.6686 105.568 29.8398 105.545 29.9597C105.521 30.0835 105.497 30.1179 105.505 30.1045L107.206 31.1572C107.51 30.6652 107.584 30.0311 107.584 29.4355H105.584ZM105.487 30.1347C105.494 30.1229 105.508 30.1025 105.531 30.0797C105.554 30.0565 105.582 30.0369 105.609 30.0223C105.666 29.9926 105.693 30 105.652 30V32C106.272 32 106.874 31.7393 107.224 31.127L105.487 30.1347ZM105.652 30H95.123V32H105.652V30ZM106.953 29.8047L106.007 29.4803L106.004 29.4885L106.953 29.8047ZM113.844 9.71289L112.905 9.36719L112.901 9.37779L112.898 9.38848L113.844 9.71289ZM119.012 9.71289L119.958 9.38848L119.954 9.37779L119.95 9.36719L119.012 9.71289ZM125.902 29.8047L126.872 29.5622L126.862 29.5207L126.848 29.4803L125.902 29.8047ZM125.604 30.8945L125.997 31.8137L126.007 31.8094L126.017 31.8049L125.604 30.8945ZM121.859 30.9121L121.521 31.853L121.543 31.861L121.565 31.8679L121.859 30.9121ZM121.314 30.4023L122.272 30.115L122.268 30.1011L122.264 30.0874L121.314 30.4023ZM120.049 26.5879L120.998 26.273L120.771 25.5879H120.049V26.5879ZM112.684 26.5879V25.5879H111.962L111.734 26.273L112.684 26.5879ZM111.418 30.4023L110.469 30.0874L110.464 30.1023L110.459 30.1174L111.418 30.4023ZM118.713 22.457V23.457H120.082L119.665 22.1526L118.713 22.457ZM116.938 16.9023L117.89 16.5979L117.883 16.5744L117.874 16.5512L116.938 16.9023ZM116.656 15.9355L115.674 16.1256L115.677 16.1407L115.681 16.1558L116.656 15.9355ZM116.463 14.8984L117.447 14.7226L117.3 13.8984H116.463V14.8984ZM116.34 14.8984V13.8984H115.505L115.356 14.7196L116.34 14.8984ZM116.27 15.2852L115.286 15.1063L115.284 15.118L116.27 15.2852ZM115.865 16.9023L114.935 16.5358L114.925 16.5612L114.916 16.587L115.865 16.9023ZM114.02 22.457L113.071 22.1417L112.633 23.457H114.02V22.457ZM108.746 30.0527C108.139 30.0527 107.8 29.9949 107.646 29.9398C107.574 29.9141 107.615 29.9137 107.682 29.9855C107.769 30.0797 107.83 30.2215 107.83 30.3672H105.83C105.83 30.7414 105.971 31.0831 106.218 31.3488C106.445 31.592 106.725 31.7344 106.972 31.8229C107.457 31.9963 108.075 32.0527 108.746 32.0527V30.0527ZM107.83 30.3672C107.83 30.4003 107.826 30.3977 107.838 30.3436C107.849 30.2941 107.868 30.2211 107.902 30.1209L106.004 29.4885C105.916 29.755 105.83 30.0696 105.83 30.3672H107.83ZM107.899 30.1291L114.79 10.0373L112.898 9.38848L106.007 29.4803L107.899 30.1291ZM114.782 10.0586C114.733 10.1916 114.643 10.1929 114.763 10.1479C114.898 10.0968 115.165 10.0449 115.619 10.0449V8.04492C115.054 8.04492 114.515 8.10434 114.059 8.27597C113.586 8.45361 113.118 8.78888 112.905 9.36719L114.782 10.0586ZM115.619 10.0449H117.236V8.04492H115.619V10.0449ZM117.236 10.0449C117.69 10.0449 117.957 10.0968 118.093 10.1479C118.212 10.1929 118.122 10.1916 118.073 10.0586L119.95 9.36719C119.737 8.78888 119.269 8.45361 118.797 8.27597C118.341 8.10434 117.802 8.04492 117.236 8.04492V10.0449ZM118.066 10.0373L124.956 30.1291L126.848 29.4803L119.958 9.38848L118.066 10.0373ZM124.932 30.0472C124.983 30.2502 124.99 30.3462 124.99 30.3672H126.99C126.99 30.1069 126.939 29.8279 126.872 29.5622L124.932 30.0472ZM124.99 30.3672C124.99 30.2886 125.016 30.1802 125.087 30.0834C125.15 29.9978 125.208 29.9759 125.19 29.9842L126.017 31.8049C126.257 31.696 126.508 31.5276 126.7 31.2662C126.9 30.9936 126.99 30.6801 126.99 30.3672H124.99ZM125.21 29.9754C125.16 29.9968 124.939 30.0527 124.426 30.0527V32.0527C124.991 32.0527 125.555 32.0032 125.997 31.8137L125.21 29.9754ZM124.426 30.0527H123.055V32.0527H124.426V30.0527ZM123.055 30.0527C122.614 30.0527 122.326 30.0094 122.153 29.9563L121.565 31.8679C122.002 32.0023 122.511 32.0527 123.055 32.0527V30.0527ZM122.198 29.9712C122.148 29.9533 122.156 29.9471 122.187 29.9753C122.202 29.9898 122.22 30.0104 122.237 30.0371C122.253 30.064 122.265 30.0909 122.272 30.115L120.357 30.6897C120.542 31.3089 121.019 31.6725 121.521 31.853L122.198 29.9712ZM122.264 30.0874L120.998 26.273L119.1 26.9028L120.365 30.7173L122.264 30.0874ZM120.049 25.5879H112.684V27.5879H120.049V25.5879ZM111.734 26.273L110.469 30.0874L112.367 30.7173L113.633 26.9028L111.734 26.273ZM110.459 30.1174C110.471 30.0792 110.494 30.037 110.526 30.0032C110.554 29.9724 110.571 29.9689 110.55 29.9786C110.492 30.0047 110.324 30.0527 109.977 30.0527V32.0527C110.461 32.0527 110.95 31.9924 111.372 31.8016C111.829 31.5956 112.215 31.2297 112.377 30.6873L110.459 30.1174ZM109.977 30.0527H108.746V32.0527H109.977V30.0527ZM119.665 22.1526L117.89 16.5979L115.985 17.2068L117.76 22.7615L119.665 22.1526ZM117.874 16.5512C117.788 16.3213 117.706 16.0442 117.632 15.7153L115.681 16.1558C115.771 16.5535 115.876 16.9209 116.001 17.2535L117.874 16.5512ZM117.638 15.7455C117.569 15.3865 117.505 15.0455 117.447 14.7226L115.478 15.0742C115.538 15.4076 115.603 15.7581 115.674 16.1256L117.638 15.7455ZM116.463 13.8984H116.34V15.8984H116.463V13.8984ZM115.356 14.7196L115.286 15.1063L117.253 15.464L117.324 15.0773L115.356 14.7196ZM115.284 15.118C115.171 15.7809 115.05 16.2424 114.935 16.5358L116.796 17.2689C116.985 16.7888 117.133 16.1722 117.255 15.4523L115.284 15.118ZM114.916 16.587L113.071 22.1417L114.969 22.7724L116.814 17.2177L114.916 16.587ZM114.02 23.457H118.713V21.457H114.02V23.457ZM128.609 9.30859L129.083 10.1891L129.096 10.1821L129.109 10.1748L128.609 9.30859ZM133.426 9.90625L132.576 10.4336L132.581 10.4422L132.587 10.4507L133.426 9.90625ZM140.809 21.2793L139.97 21.8238L139.977 21.834L140.809 21.2793ZM141.652 22.5449L140.82 23.0996L142.652 25.8477V22.5449H141.652ZM142.109 9.30859L142.583 10.1891L142.596 10.1821L142.609 10.1748L142.109 9.30859ZM145.836 9.30859L145.321 10.1661L145.341 10.178L145.362 10.1891L145.836 9.30859ZM141.986 30.8945L141.639 31.8323L141.654 31.838L141.67 31.8432L141.986 30.8945ZM141.195 30.2266L142.037 29.6858L142.032 29.6793L141.195 30.2266ZM133.461 18.3965L134.298 17.8493L134.293 17.8421L134.288 17.835L133.461 18.3965ZM132.793 17.4121L133.62 16.8506L131.793 14.1575V17.4121H132.793ZM130.033 30.0527C129.461 30.0527 129.185 29.9724 129.086 29.9206C129.052 29.9025 129.08 29.909 129.113 29.9618C129.129 29.9867 129.14 30.0126 129.146 30.0357C129.153 30.0581 129.152 30.0704 129.152 30.0684H127.152C127.152 30.3983 127.233 30.7332 127.426 31.0362C127.617 31.3351 127.88 31.5467 128.159 31.6926C128.687 31.969 129.352 32.0527 130.033 32.0527V30.0527ZM129.152 30.0684V10.0645H127.152V30.0684H129.152ZM129.152 10.0645C129.152 10.0543 129.153 10.0594 129.149 10.0753C129.145 10.0922 129.137 10.1145 129.122 10.138C129.108 10.1615 129.093 10.178 129.083 10.1876C129.073 10.1967 129.071 10.1959 129.083 10.1891L128.135 8.42812C127.853 8.5799 127.595 8.79929 127.411 9.10319C127.227 9.40805 127.152 9.74075 127.152 10.0645H129.152ZM129.109 10.1748C129.182 10.1328 129.44 10.0449 130.033 10.0449V8.04492C129.337 8.04492 128.646 8.13279 128.11 8.44241L129.109 10.1748ZM130.033 10.0449H131.369V8.04492H130.033V10.0449ZM131.369 10.0449C131.805 10.0449 132.097 10.0969 132.281 10.1624L132.954 8.27896C132.481 8.11016 131.941 8.04492 131.369 8.04492V10.0449ZM132.281 10.1624C132.365 10.1925 132.466 10.2561 132.576 10.4336L134.275 9.37889C133.964 8.8767 133.526 8.48328 132.954 8.27896L132.281 10.1624ZM132.587 10.4507L139.97 21.8238L141.647 20.7348L134.265 9.36176L132.587 10.4507ZM139.977 21.834L140.82 23.0996L142.484 21.9902L141.641 20.7246L139.977 21.834ZM142.652 22.5449V10.0645H140.652V22.5449H142.652ZM142.652 10.0645C142.652 10.0543 142.653 10.0594 142.649 10.0753C142.645 10.0922 142.637 10.1145 142.622 10.138C142.608 10.1615 142.593 10.178 142.583 10.1876C142.573 10.1967 142.571 10.1959 142.583 10.1891L141.635 8.42812C141.353 8.5799 141.095 8.79929 140.911 9.10319C140.727 9.40805 140.652 9.74075 140.652 10.0645H142.652ZM142.609 10.1748C142.682 10.1328 142.94 10.0449 143.533 10.0449V8.04492C142.837 8.04492 142.146 8.13279 141.61 8.44241L142.609 10.1748ZM143.533 10.0449H144.43V8.04492H143.533V10.0449ZM144.43 10.0449C145.028 10.0449 145.269 10.1346 145.321 10.1661L146.35 8.4511C145.817 8.13098 145.12 8.04492 144.43 8.04492V10.0449ZM145.362 10.1891C145.375 10.1959 145.373 10.1967 145.363 10.1876C145.352 10.178 145.337 10.1615 145.323 10.138C145.309 10.1145 145.3 10.0922 145.296 10.0753C145.292 10.0594 145.293 10.0543 145.293 10.0645H147.293C147.293 9.74075 147.219 9.40805 147.034 9.10319C146.851 8.79929 146.592 8.5799 146.31 8.42812L145.362 10.1891ZM145.293 10.0645V30.0684H147.293V10.0645H145.293ZM145.293 30.0684C145.293 30.0712 145.293 30.0596 145.299 30.038C145.305 30.0157 145.315 29.9901 145.331 29.9654C145.364 29.9126 145.393 29.9052 145.36 29.9224C145.265 29.9725 144.995 30.0527 144.43 30.0527V32.0527C145.106 32.0527 145.768 31.9689 146.294 31.6908C146.572 31.544 146.834 31.3315 147.022 31.0326C147.213 30.7301 147.293 30.3965 147.293 30.0684H145.293ZM144.43 30.0527H143.234V32.0527H144.43V30.0527ZM143.234 30.0527C142.774 30.0527 142.477 30.0041 142.303 29.9458L141.67 31.8432C142.128 31.9959 142.663 32.0527 143.234 32.0527V30.0527ZM142.334 29.9568C142.251 29.9263 142.149 29.8612 142.036 29.6858L140.354 30.7673C140.663 31.2482 141.089 31.6284 141.639 31.8323L142.334 29.9568ZM142.032 29.6793L134.298 17.8493L132.624 18.9437L140.358 30.7738L142.032 29.6793ZM134.288 17.835L133.62 16.8506L131.965 17.9736L132.633 18.958L134.288 17.835ZM131.793 17.4121V30.0684H133.793V17.4121H131.793ZM131.793 30.0684C131.793 30.0712 131.793 30.0596 131.799 30.038C131.805 30.0157 131.815 29.9901 131.831 29.9654C131.864 29.9126 131.893 29.9052 131.86 29.9224C131.765 29.9725 131.495 30.0527 130.93 30.0527V32.0527C131.606 32.0527 132.268 31.9689 132.794 31.6908C133.072 31.544 133.334 31.3315 133.522 31.0326C133.713 30.7301 133.793 30.3965 133.793 30.0684H131.793ZM130.93 30.0527H130.033V32.0527H130.93V30.0527Z" fill="#333333"/>
</svg>
